# xmcd
#
# Track frame offsets: 
#        150
#        12373
#        28126
#        47582
#        60600
#        76111
#        89318
#        109205
#        125915
#        141258
#        156244
#        173463
#        189177
#        204217
#        231117
#
# Disc length: 3332 seconds
#
# Revision: 0
# Processed by: cddbd v1.5.2PL0 Copyright (c) Steve Scherf et al.
# Submitted via: ExactAudioCopyFreeDBPlugin 1.0
#
DISCID=bd0d020f
DTITLE=Chicago Blues Session - Chicago's Best West And Southside Blues
DTITLE=Singers Vol. 2
DYEAR=2000
DGENRE=Blues
TTITLE0=Lovie Lee - Ain't No Hand Me Down
TTITLE1=Lovie Lee - Tell Me Baby
TTITLE2=Foree Superstar Montgomery - Standing At The Crossroads
TTITLE3=Foree Superstar Montgomery - Wonder Why
TTITLE4=Larry Taylor - Bad Boy
TTITLE5=Larry Taylor - My Baby's Gone
TTITLE6=Larry Taylor - Yes, I Love You
TTITLE7=Hip Linkchain - Saddle My Pony
TTITLE8=Hip Lankchain - Goin Away Blues
TTITLE9=George Baze - Park My Car
TTITLE10=George Baze - Hush Hush
TTITLE11=Johnny Laws - If You Cannot Be True, I Don't Need You
TTITLE12=Eddie Taylor Jr. - Ride 'em On Down
TTITLE13=Lefty Dizz - Hoodoo Man Blues
TTITLE14=Lefty Dizz - Caldonia
EXTD=
EXTT0=
EXTT1=
EXTT2=
EXTT3=
EXTT4=
EXTT5=
EXTT6=
EXTT7=
EXTT8=
EXTT9=
EXTT10=
EXTT11=
EXTT12=
EXTT13=
EXTT14=
PLAYORDER=
